<svg width="30" height="30" viewBox="0 0 30 30" fill="none" xmlns="http://www.w3.org/2000/svg">
<path d="M27.4136 11.2382L14.5238 2.71755C14.3063 2.57252 14.0343 2.5 13.7624 2.5C13.4542 2.5 13.1279 2.60877 12.8741 2.80819L2.39545 11.2926C1.97848 11.6189 1.79719 12.1447 1.90596 12.6704L4.78848 26.376C4.91539 27.0286 5.49552 27.5 6.16629 27.5H23.7696C24.4223 27.5 25.0024 27.0286 25.1293 26.3941L28.0118 12.6885C28.1387 12.1265 27.9031 11.5464 27.4136 11.2382ZM25.1293 15.5348L23.7878 21.9162C23.3708 23.8561 21.6485 25.2701 19.6543 25.2701H10.0097C8.17862 25.2701 6.56513 23.9648 6.18442 22.1701L4.7341 15.2447C4.40777 13.6856 4.96978 12.0903 6.22068 11.0751L11.2243 7.03227C12.0401 6.37962 13.0553 6.01704 14.1068 6.01704C15.0133 6.01704 15.8835 6.27085 16.6268 6.77846L23.3708 11.2382C24.803 12.1809 25.4919 13.8669 25.1474 15.5348H25.1293Z" fill="#1C1C1B"/>
<path d="M16.268 22.078V15.837C16.268 15.2975 15.9083 14.9377 15.3687 14.9377H14.6493C14.1097 14.9377 13.75 15.2975 13.75 15.837V22.078C13.75 22.6176 14.1097 22.9773 14.6493 22.9773H15.3687C15.9083 22.9773 16.268 22.6176 16.268 22.078Z" fill="#1C1C1B"/>
</svg>
